<svg xmlns="http://www.w3.org/2000/svg" version="1.1" xmlns:xlink="http://www.w3.org/1999/xlink" xmlns:svgjs="http://svgjs.com/svgjs" width="512" height="512" x="0" y="0" viewBox="0 0 48 48" style="enable-background:new 0 0 512 512" xml:space="preserve" class=""><g><g xmlns="http://www.w3.org/2000/svg" id="Portfolio"><path d="m36 4v42h-34v-42z" fill="#f8f9f9" data-original="#f8f9f9"></path><circle cx="19" cy="11" fill="#f8f9f9" r="9" data-original="#f8f9f9"></circle><path d="m46 28v13a5.41 5.41 0 0 0 -6 0v-13z" fill="#f8f9f9" data-original="#f8f9f9"></path><path d="m46 41-3 5-3-5a5.41 5.41 0 0 1 6 0z" fill="#bec6c6" data-original="#bec6c6"></path><path d="m46 25v3h-6v-3a3 3 0 0 1 6 0z" fill="#bec6c6" data-original="#bec6c6"></path><circle cx="19" cy="9" fill="#8a57ff" r="3" data-original="#6457ff" class=""></circle><path d="m25 17.71a9 9 0 0 1 -12 0 6 6 0 0 1 10.23-4 5.9 5.9 0 0 1 1.77 4z" fill="#8a57ff" data-original="#6457ff" class=""></path><g fill="#bec6c6"><path d="m20 31h-14a1 1 0 0 0 -1 1v10a1 1 0 0 0 1 1h14a1 1 0 0 0 1-1v-10a1 1 0 0 0 -1-1zm-1 2v7.75l-3-3.75-2 2.55-3-3.55-4 4.8v-7.8z" fill="#bec6c6" data-original="#bec6c6"></path><circle cx="14" cy="36" r="1" fill="#bec6c6" data-original="#bec6c6"></circle><circle cx="28" cy="26" r="3" fill="#bec6c6" data-original="#bec6c6"></circle><rect height="4" rx="1" width="10" x="23" y="39" fill="#bec6c6" data-original="#bec6c6"></rect></g><path d="m36 3h-11a9.9 9.9 0 0 0 -12 0h-11a1 1 0 0 0 -1 1v42a1 1 0 0 0 1 1h34a1 1 0 0 0 1-1v-42a1 1 0 0 0 -1-1zm-9 8a8 8 0 1 1 -8-8 8 8 0 0 1 8 8zm8 34h-32v-40h8a10 10 0 1 0 16 0h8z" fill="#414141" data-original="#414141"></path><path d="m43 21a4 4 0 0 0 -4 4c0 17-.06 16.1.12 16.45s-.62-1 3 5.06a1 1 0 0 0 1.72 0c3.16-5.26 3.16-5.07 3.16-5.44s0-.35 0-16.07a4 4 0 0 0 -4-4zm-2 8h4v10.42a6.36 6.36 0 0 0 -4 0zm0-4a2 2 0 0 1 4 0v2h-4zm2 19.06-1.6-2.67a4.42 4.42 0 0 1 3.2 0z" fill="#414141" data-original="#414141"></path><path d="m16 29h-10a1 1 0 0 1 0-2h10a1 1 0 0 1 0 2z" fill="#bec6c6" data-original="#bec6c6"></path><path d="m32 33h-8a1 1 0 0 1 0-2h8a1 1 0 0 1 0 2z" fill="#bec6c6" data-original="#bec6c6"></path><path d="m32 37h-8a1 1 0 0 1 0-2h8a1 1 0 0 1 0 2z" fill="#bec6c6" data-original="#bec6c6"></path><path d="m20 25h-14a1 1 0 0 1 0-2h14a1 1 0 0 1 0 2z" fill="#bec6c6" data-original="#bec6c6"></path></g></g></svg>